<?xml version="1.0" encoding="utf-8"?><!DOCTYPE svg PUBLIC "-//W3C//DTD SVG 1.1//EN" "http://www.w3.org/Graphics/SVG/1.1/DTD/svg11.dtd"><svg xmlns="http://www.w3.org/2000/svg" xmlns:xlink="http://www.w3.org/1999/xlink"><symbol viewBox="0 0 512 512" id="call" xmlns="http://www.w3.org/2000/svg"><path d="M391 480c-19.52 0-46.94-7.06-88-30-49.93-28-88.55-53.85-138.21-103.38C116.91 298.77 93.61 267.79 61 208.45c-36.84-67-30.56-102.12-23.54-117.13C45.82 73.38 58.16 62.65 74.11 52a176.3 176.3 0 0128.64-15.2c1-.43 1.93-.84 2.76-1.21 4.95-2.23 12.45-5.6 21.95-2 6.34 2.38 12 7.25 20.86 16 18.17 17.92 43 57.83 52.16 77.43 6.15 13.21 10.22 21.93 10.23 31.71 0 11.45-5.76 20.28-12.75 29.81-1.31 1.79-2.61 3.5-3.87 5.16-7.61 10-9.28 12.89-8.18 18.05 2.23 10.37 18.86 41.24 46.19 68.51s57.31 42.85 67.72 45.07c5.38 1.15 8.33-.59 18.65-8.47 1.48-1.13 3-2.3 4.59-3.47 10.66-7.93 19.08-13.54 30.26-13.54h.06c9.73 0 18.06 4.22 31.86 11.18 18 9.08 59.11 33.59 77.14 51.78 8.77 8.84 13.66 14.48 16.05 20.81 3.6 9.53.21 17-2 22-.37.83-.78 1.74-1.21 2.75a176.49 176.49 0 01-15.29 28.58c-10.63 15.9-21.4 28.21-39.38 36.58A67.42 67.42 0 01391 480z"/></symbol><symbol id="inst" viewBox="0 0 32 32" xml:space="preserve" xmlns="http://www.w3.org/2000/svg"><style>.bst0{fill:none;stroke:#000;stroke-width:2;stroke-linecap:round;stroke-linejoin:round;stroke-miterlimit:10}</style><path class="bst0" d="M23 31H9c-4.4 0-8-3.6-8-8V9c0-4.4 3.6-8 8-8h14c4.4 0 8 3.6 8 8v14c0 4.4-3.6 8-8 8z"/><circle class="bst0" cx="16" cy="16" r="7"/><circle class="bst0" cx="24" cy="7" r="1"/></symbol><symbol viewBox="0 0 24 24" id="tlg" xmlns="http://www.w3.org/2000/svg"><path d="M21 5L2 12.5l7 1M21 5l-2.5 15L9 13.5M21 5L9 13.5m0 0V19l3.249-3.277" stroke-width="1.5" stroke-linecap="round" stroke-linejoin="round"/></symbol><symbol id="wts" viewBox="0 0 30.667 30.667" xml:space="preserve" xmlns="http://www.w3.org/2000/svg"><path d="M30.667 14.939c0 8.25-6.74 14.938-15.056 14.938a15.1 15.1 0 01-7.276-1.857L0 30.667l2.717-8.017a14.787 14.787 0 01-2.159-7.712C.559 6.688 7.297 0 15.613 0c8.315.002 15.054 6.689 15.054 14.939zM15.61 2.382c-6.979 0-12.656 5.634-12.656 12.56 0 2.748.896 5.292 2.411 7.362l-1.58 4.663 4.862-1.545c2 1.312 4.393 2.076 6.963 2.076 6.979 0 12.658-5.633 12.658-12.559C28.27 8.016 22.59 2.382 15.61 2.382zm7.604 15.998c-.094-.151-.34-.243-.708-.427-.367-.184-2.184-1.069-2.521-1.189-.34-.123-.586-.185-.832.182-.243.367-.951 1.191-1.168 1.437-.215.245-.43.276-.799.095-.369-.186-1.559-.57-2.969-1.817-1.097-.972-1.838-2.169-2.052-2.536-.217-.366-.022-.564.161-.746.165-.165.369-.428.554-.643.185-.213.246-.364.369-.609.121-.245.06-.458-.031-.643-.092-.184-.829-1.984-1.138-2.717-.307-.732-.614-.611-.83-.611-.215 0-.461-.03-.707-.03s-.646.089-.983.456-1.291 1.252-1.291 3.054c0 1.804 1.321 3.543 1.506 3.787.186.243 2.554 4.062 6.305 5.528 3.753 1.465 3.753.976 4.429.914.678-.062 2.184-.885 2.49-1.739.308-.858.308-1.593.215-1.746z"/></symbol></svg>