<svg width="460" height="210" viewBox="0 0 460 210" fill="none" xmlns="http://www.w3.org/2000/svg">
<path d="M243.952 208.882C267.443 208.882 285.72 204.898 308.039 198.105C319.233 194.698 331.181 193.471 342.138 189.381C352.226 185.615 361.737 180.886 372.297 178.433C388.737 174.613 405.944 174.02 421.818 167.998C431.624 164.278 444.649 161.962 452.491 154.655C465.473 142.559 456.868 119.082 450.949 105.218C447.855 97.9724 445.301 89.971 439.811 84.1768C433.523 77.5412 426.142 73.6104 419.848 67.3271C412.531 60.0228 402.463 55.5788 393.63 50.3918C379.403 42.0368 365.16 33.0173 348.821 29.5221C326.935 24.8402 305.425 18.206 283.192 15.0673C258.336 11.5582 232.415 13.3566 207.368 13.3566C157.425 13.3566 106.38 9.29018 57.4322 20.2847C43.1241 23.4985 31.1192 31.303 25.1318 44.9178C16.544 64.4457 25.9445 85.1397 29.587 104.533C34.142 128.785 35.3649 152.777 59.2314 166.971C83.7813 181.572 116.459 185.861 143.709 191.262C160.966 194.683 178.125 199.373 195.801 199.644C210.686 199.873 225.637 199.837 240.525 199.644C255.862 199.446 269.831 195.691 284.734 192.631C297.364 190.037 310.225 188.134 322.604 184.42C351.152 175.853 379.644 168.965 407.596 158.418C441.486 145.631 469.19 103.072 450.435 67.3271C444.379 55.7865 431.765 49.0357 421.047 42.5229C401.262 30.5004 381.407 19.2547 359.274 12.0737C318.033 -1.30663 277.469 1.04009 234.699 1.04009C196.973 1.04009 161.336 0.35025 124.432 8.6524C98.7134 14.4383 74.7065 21.9562 49.9783 30.9761C36.0358 36.0618 12.0659 46.8589 5.85438 61.1688C-4.19034 84.3095 3.59411 112.144 16.4784 132.844C37.4641 166.561 79.5895 179.019 116.464 185.446C154.334 192.047 193.546 192.934 231.871 195.624C244.315 196.498 257.846 198.105 270.169 198.105" stroke="#75BBFD" stroke-linecap="round"/>
</svg>
